<?xml version="1.0" encoding="utf-8"?>
<!-- Generator: Adobe Illustrator 28.0.0, SVG Export Plug-In . SVG Version: 6.00 Build 0)  -->
<svg version="1.1" id="图层_1" xmlns="http://www.w3.org/2000/svg" xmlns:xlink="http://www.w3.org/1999/xlink" x="0px" y="0px"
	 viewBox="0 0 1600 900" style="enable-background:new 0 0 1600 900;" xml:space="preserve">
<style type="text/css">
	.st0{fill:#6E29F5;}
	.st1{fill:none;stroke:#DCDCDC;stroke-miterlimit:10;}
	.st2{fill:#FFFFFF;}
</style>
<path d="M1235.45,339.86H852.71c-3.68,0-6.66,2.98-6.66,6.66v91.21c0,3.68,2.98,6.66,6.66,6.66h382.74c3.68,0,6.66-2.98,6.66-6.66
	v-91.21C1242.11,342.84,1239.13,339.86,1235.45,339.86z"/>
<path class="st0" d="M361.21,387.77h-33.31c-1.84,0-3.33,1.49-3.33,3.33v9.99c0,1.84-1.49,3.33-3.33,3.33h-29.98
	c-1.84,0-3.33,1.49-3.33,3.33v13.32c0,1.84,1.49,3.33,3.33,3.33h33.31c1.84,0,3.33-1.49,3.33-3.33v-9.99c0-1.84,1.49-3.33,3.33-3.33
	h29.98c1.84,0,3.33-1.49,3.33-3.33V391.1C364.54,389.26,363.05,387.77,361.21,387.77z"/>
<g>
	<path d="M403,414.15c0-8.64-20.47-1.47-20.47-15.91c0-7.59,6.8-11.1,12.88-11.1c4.5,0,8.32,1.41,11.93,4.4l-2.77,4.71
		c-2.77-2.62-5.7-3.82-9.16-3.82c-3.14,0-6.86,1.73-6.86,5.6c0,8.64,20.47,1.47,20.47,15.91c0,7.75-6.96,11.1-13.45,11.1
		c-5.5,0-10.63-2.04-13.98-6.33l2.93-4.97c3.35,4.19,6.91,6.02,11.04,6.02C399.08,419.75,403,418.13,403,414.15z"/>
	<path d="M416.47,386.41c1.94,0,3.4,1.41,3.4,3.4c0,1.99-1.47,3.4-3.4,3.4c-1.94,0-3.4-1.41-3.4-3.4
		C413.07,387.83,414.53,386.41,416.47,386.41z M413.59,398.24h5.76v26.17h-5.76V398.24z"/>
	<path d="M425.45,387.77h5.76v36.64h-5.76V387.77z"/>
	<path d="M440.18,386.41c1.94,0,3.4,1.41,3.4,3.4c0,1.99-1.47,3.4-3.4,3.4c-1.94,0-3.4-1.41-3.4-3.4
		C436.78,387.83,438.24,386.41,440.18,386.41z M437.3,398.24h5.76v26.17h-5.76V398.24z"/>
	<path d="M447.62,411.33c0-7.96,5.91-13.71,14.03-13.71c4.5,0,8.43,1.94,10.83,4.87l-4.29,3.51c-1.41-1.78-3.77-3.04-6.54-3.04
		c-4.76,0-8.27,3.45-8.27,8.37c0,4.92,3.51,8.37,8.27,8.37c2.77,0,5.13-1.26,6.54-3.04l4.29,3.51c-2.41,2.93-6.33,4.87-10.83,4.87
		C453.54,425.04,447.62,419.28,447.62,411.33z"/>
	<path d="M488.17,397.61c7.96,0,14.03,5.81,14.03,13.71c0,7.9-6.07,13.71-14.03,13.71c-7.96,0-14.03-5.81-14.03-13.71
		C474.14,403.42,480.21,397.61,488.17,397.61z M488.17,402.95c-4.82,0-8.27,3.66-8.27,8.37c0,4.71,3.45,8.37,8.27,8.37
		c4.82,0,8.27-3.66,8.27-8.37C496.44,406.62,492.98,402.95,488.17,402.95z"/>
	<path d="M512.43,410.33v14.08h-5.76v-26.17h5.76v4.13c1.52-3.14,4.87-4.76,8.32-4.76c5.91,0,10.42,4.08,10.42,11.78v15.02h-5.76
		V409.6c0-4.24-2.51-6.54-6.18-6.54C515.31,403.06,512.43,405.67,512.43,410.33z"/>
	<path d="M543.31,424.41h-6.02v-36.64h23.29v5.5h-17.27v10.47h15.39v5.39h-15.39V424.41z"/>
	<path d="M564.16,387.77h5.76v36.64h-5.76V387.77z"/>
	<path d="M588.38,397.61c7.96,0,14.03,5.81,14.03,13.71c0,7.9-6.07,13.71-14.03,13.71s-14.03-5.81-14.03-13.71
		C574.36,403.42,580.43,397.61,588.38,397.61z M588.38,402.95c-4.82,0-8.27,3.66-8.27,8.37c0,4.71,3.45,8.37,8.27,8.37
		s8.27-3.66,8.27-8.37C596.65,406.62,593.2,402.95,588.38,402.95z"/>
	<path d="M638.44,398.24h5.64l-7.14,26.17h-7.64l-5.02-19.47l-5.36,19.47h-7.64l-6.86-26.17h5.75l5.13,20.89l5.69-20.89h6.58
		l5.47,20.89L638.44,398.24z"/>
</g>
<path class="st1" d="M657.4,339.86H274.66c-3.68,0-6.66,2.98-6.66,6.66v91.21c0,3.68,2.98,6.66,6.66,6.66H657.4
	c3.68,0,6.66-2.98,6.66-6.66v-91.21C664.06,342.84,661.08,339.86,657.4,339.86z"/>
<path class="st0" d="M939.26,387.77h-33.31c-1.84,0-3.33,1.49-3.33,3.33v9.99c0,1.84-1.49,3.33-3.33,3.33h-29.98
	c-1.84,0-3.33,1.49-3.33,3.33v13.32c0,1.84,1.49,3.33,3.33,3.33h33.31c1.84,0,3.33-1.49,3.33-3.33v-9.99c0-1.84,1.49-3.33,3.33-3.33
	h29.98c1.84,0,3.33-1.49,3.33-3.33V391.1C942.59,389.26,941.1,387.77,939.26,387.77z"/>
<g>
	<path class="st2" d="M981.05,414.15c0-8.64-20.47-1.47-20.47-15.91c0-7.59,6.8-11.1,12.88-11.1c4.5,0,8.32,1.41,11.93,4.4
		l-2.77,4.71c-2.77-2.62-5.7-3.82-9.16-3.82c-3.14,0-6.86,1.73-6.86,5.6c0,8.64,20.47,1.47,20.47,15.91c0,7.75-6.96,11.1-13.45,11.1
		c-5.5,0-10.63-2.04-13.98-6.33l2.93-4.97c3.35,4.19,6.91,6.02,11.04,6.02C977.13,419.75,981.05,418.13,981.05,414.15z"/>
	<path class="st2" d="M994.52,386.41c1.94,0,3.4,1.41,3.4,3.4c0,1.99-1.47,3.4-3.4,3.4s-3.4-1.41-3.4-3.4
		C991.11,387.83,992.58,386.41,994.52,386.41z M991.64,398.24h5.76v26.17h-5.76V398.24z"/>
	<path class="st2" d="M1003.49,387.77h5.76v36.64h-5.76V387.77z"/>
	<path class="st2" d="M1018.23,386.41c1.94,0,3.4,1.41,3.4,3.4c0,1.99-1.47,3.4-3.4,3.4c-1.94,0-3.4-1.41-3.4-3.4
		C1014.83,387.83,1016.29,386.41,1018.23,386.41z M1015.35,398.24h5.76v26.17h-5.76V398.24z"/>
	<path class="st2" d="M1025.67,411.33c0-7.96,5.91-13.71,14.03-13.71c4.5,0,8.43,1.94,10.83,4.87l-4.29,3.51
		c-1.41-1.78-3.77-3.04-6.54-3.04c-4.76,0-8.27,3.45-8.27,8.37c0,4.92,3.51,8.37,8.27,8.37c2.77,0,5.13-1.26,6.54-3.04l4.29,3.51
		c-2.41,2.93-6.33,4.87-10.83,4.87C1031.59,425.04,1025.67,419.28,1025.67,411.33z"/>
	<path class="st2" d="M1066.22,397.61c7.96,0,14.03,5.81,14.03,13.71c0,7.9-6.07,13.71-14.03,13.71c-7.96,0-14.03-5.81-14.03-13.71
		C1052.19,403.42,1058.26,397.61,1066.22,397.61z M1066.22,402.95c-4.82,0-8.27,3.66-8.27,8.37c0,4.71,3.45,8.37,8.27,8.37
		c4.82,0,8.27-3.66,8.27-8.37C1074.49,406.62,1071.03,402.95,1066.22,402.95z"/>
	<path class="st2" d="M1090.48,410.33v14.08h-5.76v-26.17h5.76v4.13c1.52-3.14,4.87-4.76,8.32-4.76c5.91,0,10.42,4.08,10.42,11.78
		v15.02h-5.76V409.6c0-4.24-2.51-6.54-6.18-6.54C1093.36,403.06,1090.48,405.67,1090.48,410.33z"/>
	<path class="st2" d="M1121.36,424.41h-6.02v-36.64h23.29v5.5h-17.27v10.47h15.39v5.39h-15.39V424.41z"/>
	<path class="st2" d="M1142.21,387.77h5.76v36.64h-5.76V387.77z"/>
	<path class="st2" d="M1166.43,397.61c7.96,0,14.03,5.81,14.03,13.71c0,7.9-6.07,13.71-14.03,13.71c-7.96,0-14.03-5.81-14.03-13.71
		C1152.41,403.42,1158.48,397.61,1166.43,397.61z M1166.43,402.95c-4.82,0-8.27,3.66-8.27,8.37c0,4.71,3.45,8.37,8.27,8.37
		c4.82,0,8.27-3.66,8.27-8.37C1174.7,406.62,1171.25,402.95,1166.43,402.95z"/>
	<path class="st2" d="M1216.49,398.24h5.64l-7.14,26.17h-7.64l-5.02-19.47l-5.36,19.47h-7.64l-6.86-26.17h5.75l5.13,20.89
		l5.69-20.89h6.58l5.47,20.89L1216.49,398.24z"/>
</g>
<g>
	<path d="M287.94,369.73v-13.19h4.7c1.03,0,1.88,0.19,2.55,0.56c0.67,0.37,1.18,0.88,1.51,1.53c0.34,0.65,0.5,1.37,0.5,2.18
		c0,0.81-0.17,1.54-0.51,2.19c-0.34,0.65-0.84,1.16-1.52,1.53c-0.68,0.38-1.53,0.56-2.55,0.56h-3.23v-1.69h3.05
		c0.65,0,1.17-0.11,1.58-0.34s0.7-0.53,0.89-0.92c0.19-0.39,0.28-0.84,0.28-1.33c0-0.5-0.09-0.94-0.28-1.33
		c-0.19-0.39-0.49-0.69-0.89-0.91c-0.41-0.22-0.94-0.33-1.6-0.33h-2.5v11.49H287.94z"/>
	<path d="M302.91,369.93c-0.93,0-1.74-0.21-2.43-0.64c-0.69-0.43-1.23-1.02-1.61-1.78c-0.38-0.76-0.57-1.66-0.57-2.68
		c0-1.03,0.19-1.92,0.57-2.69c0.38-0.77,0.92-1.37,1.61-1.79c0.69-0.43,1.5-0.64,2.43-0.64c0.93,0,1.74,0.21,2.43,0.64
		c0.69,0.43,1.23,1.02,1.61,1.79c0.38,0.77,0.57,1.67,0.57,2.69c0,1.02-0.19,1.91-0.57,2.68c-0.38,0.76-0.92,1.36-1.61,1.78
		C304.65,369.72,303.84,369.93,302.91,369.93z M302.92,368.31c0.6,0,1.1-0.16,1.49-0.48c0.4-0.32,0.69-0.74,0.88-1.27
		c0.19-0.53,0.29-1.11,0.29-1.75c0-0.63-0.1-1.21-0.29-1.74c-0.19-0.53-0.48-0.96-0.88-1.28c-0.39-0.32-0.89-0.48-1.49-0.48
		c-0.61,0-1.11,0.16-1.5,0.48c-0.4,0.32-0.69,0.75-0.88,1.28c-0.19,0.53-0.29,1.11-0.29,1.74c0,0.64,0.1,1.22,0.29,1.75
		c0.19,0.53,0.49,0.95,0.88,1.27C301.81,368.15,302.32,368.31,302.92,368.31z"/>
	<path d="M311.08,369.73l-2.91-9.9h1.99l1.94,7.27h0.1l1.95-7.27h1.99l1.93,7.23h0.1l1.93-7.23h1.99l-2.91,9.9h-1.96l-2.01-7.15
		h-0.15l-2.01,7.15H311.08z"/>
	<path d="M327.42,369.93c-0.98,0-1.81-0.21-2.52-0.63c-0.7-0.42-1.24-1.01-1.62-1.77c-0.38-0.76-0.57-1.66-0.57-2.68
		c0-1.01,0.19-1.91,0.57-2.68c0.38-0.77,0.91-1.38,1.6-1.81c0.69-0.43,1.49-0.65,2.41-0.65c0.56,0,1.1,0.09,1.62,0.28
		c0.52,0.19,0.99,0.47,1.41,0.87c0.42,0.39,0.75,0.91,0.99,1.54c0.24,0.63,0.36,1.39,0.36,2.29v0.68h-7.87v-1.44h5.98
		c0-0.51-0.1-0.96-0.31-1.35c-0.21-0.39-0.5-0.7-0.87-0.93c-0.37-0.23-0.81-0.34-1.31-0.34c-0.54,0-1.01,0.13-1.41,0.4
		c-0.4,0.26-0.71,0.61-0.93,1.03c-0.22,0.42-0.33,0.88-0.33,1.38v1.13c0,0.66,0.12,1.22,0.35,1.69c0.23,0.46,0.56,0.82,0.98,1.06
		c0.42,0.24,0.91,0.36,1.47,0.36c0.37,0,0.7-0.05,1-0.16c0.3-0.11,0.56-0.26,0.78-0.47c0.22-0.21,0.39-0.47,0.5-0.78l1.82,0.33
		c-0.15,0.54-0.41,1.01-0.78,1.41c-0.38,0.4-0.85,0.71-1.41,0.93C328.78,369.82,328.14,369.93,327.42,369.93z"/>
	<path d="M333.45,369.73v-9.9h1.86v1.57h0.1c0.18-0.53,0.5-0.95,0.96-1.26c0.46-0.31,0.98-0.46,1.56-0.46c0.12,0,0.26,0,0.43,0.01
		c0.17,0.01,0.3,0.02,0.39,0.03v1.84c-0.08-0.02-0.21-0.05-0.41-0.07c-0.2-0.03-0.39-0.04-0.59-0.04c-0.46,0-0.86,0.1-1.21,0.29
		c-0.35,0.19-0.63,0.46-0.84,0.79c-0.21,0.34-0.31,0.72-0.31,1.15v6.04H333.45z"/>
	<path d="M344.11,369.93c-0.98,0-1.81-0.21-2.52-0.63c-0.7-0.42-1.24-1.01-1.62-1.77s-0.57-1.66-0.57-2.68
		c0-1.01,0.19-1.91,0.57-2.68c0.38-0.77,0.91-1.38,1.6-1.81s1.49-0.65,2.41-0.65c0.56,0,1.1,0.09,1.62,0.28
		c0.52,0.19,0.99,0.47,1.41,0.87c0.42,0.39,0.75,0.91,0.99,1.54c0.24,0.63,0.36,1.39,0.36,2.29v0.68h-7.87v-1.44h5.98
		c0-0.51-0.1-0.96-0.31-1.35c-0.21-0.39-0.5-0.7-0.87-0.93c-0.37-0.23-0.81-0.34-1.31-0.34c-0.54,0-1.01,0.13-1.41,0.4
		c-0.4,0.26-0.71,0.61-0.93,1.03c-0.22,0.42-0.33,0.88-0.33,1.38v1.13c0,0.66,0.12,1.22,0.35,1.69c0.23,0.46,0.56,0.82,0.98,1.06
		c0.42,0.24,0.91,0.36,1.47,0.36c0.37,0,0.7-0.05,1-0.16c0.3-0.11,0.56-0.26,0.78-0.47c0.22-0.21,0.39-0.47,0.5-0.78l1.82,0.33
		c-0.15,0.54-0.41,1.01-0.78,1.41c-0.38,0.4-0.85,0.71-1.41,0.93C345.48,369.82,344.84,369.93,344.11,369.93z"/>
	<path d="M353.83,369.92c-0.8,0-1.51-0.2-2.14-0.62c-0.63-0.41-1.11-1-1.47-1.76c-0.35-0.76-0.53-1.68-0.53-2.75
		c0-1.07,0.18-1.98,0.54-2.74c0.36-0.76,0.85-1.34,1.48-1.75c0.63-0.4,1.34-0.61,2.13-0.61c0.61,0,1.11,0.1,1.49,0.31
		c0.38,0.2,0.67,0.44,0.88,0.71c0.21,0.27,0.37,0.51,0.49,0.71h0.12v-4.9h1.93v13.19h-1.88v-1.54h-0.16
		c-0.12,0.21-0.28,0.45-0.5,0.72c-0.22,0.27-0.51,0.51-0.89,0.71C354.92,369.82,354.43,369.92,353.83,369.92z M354.25,368.28
		c0.55,0,1.02-0.15,1.41-0.44c0.38-0.29,0.68-0.7,0.88-1.23c0.2-0.52,0.3-1.13,0.3-1.83c0-0.69-0.1-1.29-0.3-1.8
		c-0.2-0.51-0.49-0.92-0.87-1.2c-0.38-0.29-0.85-0.43-1.42-0.43c-0.58,0-1.06,0.15-1.45,0.45c-0.39,0.3-0.68,0.71-0.87,1.23
		c-0.2,0.52-0.29,1.11-0.29,1.76c0,0.66,0.1,1.26,0.3,1.78c0.2,0.53,0.49,0.95,0.88,1.25C353.2,368.12,353.68,368.28,354.25,368.28z
		"/>
	<path d="M365.74,369.73v-13.19h1.93v4.9h0.12c0.11-0.21,0.27-0.44,0.48-0.71c0.21-0.27,0.5-0.51,0.88-0.71
		c0.37-0.2,0.87-0.31,1.48-0.31c0.8,0,1.51,0.2,2.14,0.61c0.63,0.4,1.12,0.99,1.48,1.75c0.36,0.76,0.54,1.68,0.54,2.74
		c0,1.07-0.18,1.99-0.53,2.75c-0.36,0.76-0.85,1.35-1.47,1.76c-0.62,0.41-1.33,0.62-2.13,0.62c-0.6,0-1.09-0.1-1.47-0.3
		c-0.38-0.2-0.68-0.44-0.89-0.71c-0.21-0.27-0.38-0.51-0.5-0.72h-0.16v1.54H365.74z M367.63,364.78c0,0.7,0.1,1.31,0.3,1.83
		c0.2,0.52,0.49,0.93,0.88,1.23c0.38,0.29,0.85,0.44,1.4,0.44c0.58,0,1.06-0.15,1.44-0.46c0.39-0.31,0.68-0.72,0.88-1.25
		c0.2-0.53,0.3-1.12,0.3-1.78c0-0.65-0.1-1.24-0.29-1.76c-0.2-0.52-0.49-0.93-0.88-1.23c-0.39-0.3-0.87-0.45-1.45-0.45
		c-0.56,0-1.03,0.14-1.41,0.43c-0.38,0.29-0.68,0.69-0.87,1.2C367.73,363.49,367.63,364.09,367.63,364.78z"/>
	<path d="M377.32,373.44c-0.29,0-0.55-0.02-0.79-0.07c-0.24-0.05-0.41-0.09-0.53-0.15l0.46-1.58c0.35,0.09,0.67,0.13,0.94,0.12
		s0.52-0.12,0.73-0.31s0.4-0.51,0.56-0.95l0.24-0.66l-3.62-10.02h2.06l2.51,7.68h0.1l2.51-7.68h2.07l-4.08,11.22
		c-0.19,0.52-0.43,0.95-0.72,1.31s-0.64,0.63-1.04,0.81C378.33,373.35,377.86,373.44,377.32,373.44z"/>
</g>
<g>
	<path class="st2" d="M865.99,369.73v-13.19h4.7c1.03,0,1.88,0.19,2.55,0.56c0.67,0.37,1.18,0.88,1.51,1.53
		c0.34,0.65,0.5,1.37,0.5,2.18c0,0.81-0.17,1.54-0.51,2.19c-0.34,0.65-0.84,1.16-1.52,1.53c-0.68,0.38-1.53,0.56-2.55,0.56h-3.23
		v-1.69h3.05c0.65,0,1.17-0.11,1.58-0.34s0.7-0.53,0.89-0.92c0.19-0.39,0.28-0.84,0.28-1.33c0-0.5-0.09-0.94-0.28-1.33
		c-0.19-0.39-0.49-0.69-0.89-0.91c-0.41-0.22-0.94-0.33-1.6-0.33h-2.5v11.49H865.99z"/>
	<path class="st2" d="M880.96,369.93c-0.93,0-1.74-0.21-2.43-0.64c-0.69-0.43-1.23-1.02-1.61-1.78c-0.38-0.76-0.57-1.66-0.57-2.68
		c0-1.03,0.19-1.92,0.57-2.69c0.38-0.77,0.92-1.37,1.61-1.79c0.69-0.43,1.5-0.64,2.43-0.64c0.93,0,1.74,0.21,2.43,0.64
		c0.69,0.43,1.23,1.02,1.61,1.79c0.38,0.77,0.57,1.67,0.57,2.69c0,1.02-0.19,1.91-0.57,2.68c-0.38,0.76-0.92,1.36-1.61,1.78
		C882.7,369.72,881.89,369.93,880.96,369.93z M880.97,368.31c0.6,0,1.1-0.16,1.49-0.48c0.4-0.32,0.69-0.74,0.88-1.27
		c0.19-0.53,0.29-1.11,0.29-1.75c0-0.63-0.1-1.21-0.29-1.74c-0.19-0.53-0.48-0.96-0.88-1.28c-0.39-0.32-0.89-0.48-1.49-0.48
		c-0.61,0-1.11,0.16-1.5,0.48c-0.4,0.32-0.69,0.75-0.88,1.28c-0.19,0.53-0.29,1.11-0.29,1.74c0,0.64,0.1,1.22,0.29,1.75
		c0.19,0.53,0.49,0.95,0.88,1.27C879.86,368.15,880.36,368.31,880.97,368.31z"/>
	<path class="st2" d="M889.13,369.73l-2.91-9.9h1.99l1.94,7.27h0.1l1.95-7.27h1.99l1.93,7.23h0.1l1.93-7.23h1.99l-2.91,9.9h-1.96
		l-2.01-7.15h-0.15l-2.01,7.15H889.13z"/>
	<path class="st2" d="M905.47,369.93c-0.98,0-1.81-0.21-2.52-0.63c-0.7-0.42-1.24-1.01-1.62-1.77s-0.57-1.66-0.57-2.68
		c0-1.01,0.19-1.91,0.57-2.68c0.38-0.77,0.91-1.38,1.6-1.81s1.49-0.65,2.41-0.65c0.56,0,1.1,0.09,1.62,0.28
		c0.52,0.19,0.99,0.47,1.41,0.87c0.42,0.39,0.75,0.91,0.99,1.54c0.24,0.63,0.36,1.39,0.36,2.29v0.68h-7.87v-1.44h5.98
		c0-0.51-0.1-0.96-0.31-1.35c-0.21-0.39-0.5-0.7-0.87-0.93c-0.37-0.23-0.81-0.34-1.31-0.34c-0.54,0-1.01,0.13-1.41,0.4
		c-0.4,0.26-0.71,0.61-0.93,1.03c-0.22,0.42-0.33,0.88-0.33,1.38v1.13c0,0.66,0.12,1.22,0.35,1.69c0.23,0.46,0.56,0.82,0.98,1.06
		c0.42,0.24,0.91,0.36,1.47,0.36c0.37,0,0.7-0.05,1-0.16c0.3-0.11,0.56-0.26,0.78-0.47c0.22-0.21,0.39-0.47,0.5-0.78l1.82,0.33
		c-0.15,0.54-0.41,1.01-0.78,1.41c-0.38,0.4-0.85,0.71-1.41,0.93C906.83,369.82,906.19,369.93,905.47,369.93z"/>
	<path class="st2" d="M911.5,369.73v-9.9h1.86v1.57h0.1c0.18-0.53,0.5-0.95,0.96-1.26c0.46-0.31,0.98-0.46,1.56-0.46
		c0.12,0,0.26,0,0.43,0.01c0.17,0.01,0.3,0.02,0.39,0.03v1.84c-0.08-0.02-0.21-0.05-0.41-0.07c-0.2-0.03-0.39-0.04-0.59-0.04
		c-0.46,0-0.86,0.1-1.21,0.29c-0.35,0.19-0.63,0.46-0.84,0.79c-0.21,0.34-0.31,0.72-0.31,1.15v6.04H911.5z"/>
	<path class="st2" d="M922.16,369.93c-0.98,0-1.81-0.21-2.52-0.63c-0.7-0.42-1.24-1.01-1.62-1.77s-0.57-1.66-0.57-2.68
		c0-1.01,0.19-1.91,0.57-2.68c0.38-0.77,0.91-1.38,1.6-1.81c0.69-0.43,1.49-0.65,2.41-0.65c0.56,0,1.1,0.09,1.62,0.28
		c0.52,0.19,0.99,0.47,1.41,0.87c0.42,0.39,0.75,0.91,0.99,1.54c0.24,0.63,0.36,1.39,0.36,2.29v0.68h-7.87v-1.44h5.98
		c0-0.51-0.1-0.96-0.31-1.35c-0.21-0.39-0.5-0.7-0.87-0.93c-0.37-0.23-0.81-0.34-1.31-0.34c-0.54,0-1.01,0.13-1.41,0.4
		c-0.4,0.26-0.71,0.61-0.93,1.03c-0.22,0.42-0.33,0.88-0.33,1.38v1.13c0,0.66,0.12,1.22,0.35,1.69c0.23,0.46,0.56,0.82,0.98,1.06
		c0.42,0.24,0.91,0.36,1.47,0.36c0.37,0,0.7-0.05,1-0.16c0.3-0.11,0.56-0.26,0.78-0.47c0.22-0.21,0.39-0.47,0.5-0.78l1.82,0.33
		c-0.15,0.54-0.41,1.01-0.78,1.41c-0.38,0.4-0.85,0.71-1.41,0.93C923.53,369.82,922.88,369.93,922.16,369.93z"/>
	<path class="st2" d="M931.87,369.92c-0.8,0-1.51-0.2-2.14-0.62c-0.63-0.41-1.11-1-1.47-1.76c-0.35-0.76-0.53-1.68-0.53-2.75
		c0-1.07,0.18-1.98,0.54-2.74c0.36-0.76,0.85-1.34,1.48-1.75c0.63-0.4,1.34-0.61,2.13-0.61c0.61,0,1.11,0.1,1.49,0.31
		c0.38,0.2,0.67,0.44,0.88,0.71c0.21,0.27,0.37,0.51,0.49,0.71h0.12v-4.9h1.93v13.19h-1.88v-1.54h-0.16
		c-0.12,0.21-0.28,0.45-0.5,0.72c-0.22,0.27-0.51,0.51-0.89,0.71C932.97,369.82,932.48,369.92,931.87,369.92z M932.3,368.28
		c0.55,0,1.02-0.15,1.41-0.44c0.38-0.29,0.68-0.7,0.88-1.23c0.2-0.52,0.3-1.13,0.3-1.83c0-0.69-0.1-1.29-0.3-1.8
		c-0.2-0.51-0.49-0.92-0.87-1.2c-0.38-0.29-0.85-0.43-1.42-0.43c-0.58,0-1.06,0.15-1.45,0.45c-0.39,0.3-0.68,0.71-0.87,1.23
		s-0.29,1.11-0.29,1.76c0,0.66,0.1,1.26,0.3,1.78c0.2,0.53,0.49,0.95,0.88,1.25C931.25,368.12,931.73,368.28,932.3,368.28z"/>
	<path class="st2" d="M943.79,369.73v-13.19h1.93v4.9h0.12c0.11-0.21,0.27-0.44,0.48-0.71c0.21-0.27,0.5-0.51,0.88-0.71
		c0.37-0.2,0.87-0.31,1.48-0.31c0.8,0,1.51,0.2,2.14,0.61c0.63,0.4,1.12,0.99,1.48,1.75c0.36,0.76,0.54,1.68,0.54,2.74
		c0,1.07-0.18,1.99-0.53,2.75c-0.36,0.76-0.85,1.35-1.47,1.76c-0.62,0.41-1.33,0.62-2.13,0.62c-0.6,0-1.09-0.1-1.47-0.3
		c-0.38-0.2-0.68-0.44-0.89-0.71c-0.21-0.27-0.38-0.51-0.5-0.72h-0.16v1.54H943.79z M945.68,364.78c0,0.7,0.1,1.31,0.3,1.83
		c0.2,0.52,0.49,0.93,0.88,1.23c0.38,0.29,0.85,0.44,1.4,0.44c0.58,0,1.06-0.15,1.44-0.46c0.39-0.31,0.68-0.72,0.88-1.25
		c0.2-0.53,0.3-1.12,0.3-1.78c0-0.65-0.1-1.24-0.29-1.76c-0.2-0.52-0.49-0.93-0.88-1.23c-0.39-0.3-0.87-0.45-1.45-0.45
		c-0.56,0-1.03,0.14-1.41,0.43c-0.38,0.29-0.68,0.69-0.87,1.2C945.78,363.49,945.68,364.09,945.68,364.78z"/>
	<path class="st2" d="M955.37,373.44c-0.29,0-0.55-0.02-0.79-0.07c-0.24-0.05-0.41-0.09-0.53-0.15l0.46-1.58
		c0.35,0.09,0.67,0.13,0.94,0.12s0.52-0.12,0.73-0.31s0.4-0.51,0.56-0.95l0.24-0.66l-3.62-10.02h2.06l2.51,7.68h0.1l2.51-7.68h2.07
		l-4.08,11.22c-0.19,0.52-0.43,0.95-0.72,1.31c-0.29,0.36-0.64,0.63-1.04,0.81C956.37,373.35,955.9,373.44,955.37,373.44z"/>
</g>
</svg>
